<svg width="400" height="540" xmlns="http://www.w3.org/2000/svg">

 <g>
  <title>background</title>
  <rect fill="none" id="canvas_background" height="542" width="402" y="-1" x="-1"/>
 </g>
 <g>
  <title>Layer 1</title>
  <g opacity="0.5" id="RenderLayer_LineSet">
   <g id="frame_0000">
    <g id="strokes">
     <path id="svg_1" stroke-width="3" stroke-linejoin="bevel" stroke="rgb(0, 0, 0)" fill="none" d="m85.829,181.865l-8.36,-5.488l-8.36,-5.487l-8.359,-5.488l-8.36,-5.487l-2.917,-1.915l-10,0.002l-9.568,0.002l-4.084,9.128l-4.084,9.129l-4.084,9.128l-4.083,9.128l-3.573,7.985l8.249,5.654l8.248,5.653l8.249,5.653l8.248,5.654l8.249,5.653l8.249,5.654l8.248,5.653l8.249,5.653l8.248,5.654l3.182,2.18"/>
     <path id="svg_2" stroke-width="3" stroke-linejoin="bevel" stroke="rgb(0, 0, 0)" fill="none" d="m260.922,281.29l8.673,-4.976l8.674,-4.976l7.647,-4.387l8.673,-4.977l8.674,-4.976l8.674,-4.976l8.674,-4.977l8.674,-4.976l8.674,-4.976l8.674,-4.977l8.673,-4.976l8.674,-4.976l8.674,-4.977l8.674,-4.976l7.663,-4.397l-4.836,-8.752l-4.837,-8.753l-4.836,-8.753l-4.836,-8.753l-4.836,-8.752l-3.414,-6.178l-10,0.001l-1.648,0l-8.545,5.194l-8.546,5.193l-8.545,5.194l-8.546,5.193l-8.546,5.194l-8.545,5.193l-8.546,5.194l-8.545,5.194l-5.927,3.601l-2.423,1.473"/>
     <path id="svg_3" stroke-width="3" stroke-linejoin="bevel" stroke="rgb(0, 0, 0)" fill="none" d="m246.584,285.373l8.666,-4.99l8.666,-4.99l8.666,-4.989l8.666,-4.99l4.655,-2.68l8.666,-4.99l8.666,-4.989l8.666,-4.99l8.667,-4.99l8.666,-4.989l8.666,-4.99l8.666,-4.99l8.666,-4.989l8.667,-4.99l8.666,-4.99l5.667,-3.263"/>
     <path id="svg_4" stroke-width="3" stroke-linejoin="bevel" stroke="rgb(0, 0, 0)" fill="none" d="m388.991,207.814l-9.869,1.614l-0.89,0.146l-4.825,-8.759l-4.826,-8.758l-4.825,-8.759l-4.826,-8.759l-4.826,-8.758l-4.356,-7.907"/>
     <path id="svg_5" stroke-width="3" stroke-linejoin="bevel" stroke="rgb(0, 0, 0)" fill="none" d="m162.146,366.074l0.003,0.225l0.147,9.999l0.147,9.999l0.148,9.999l0.147,9.999l0.147,9.999l0.147,9.999l0.147,9.999l0.147,9.998l0.147,9.999l0.147,9.999l0.159,10.801l0.147,9.999l0.147,9.999l0.147,9.999l0.083,5.646l0.093,6.279l9.89,1.475l9.891,1.476l9.89,1.476l9.891,1.476l9.89,1.475l1.726,0.258l7.922,-6.102l7.923,-6.101l7.923,-6.102l7.923,-6.101l7.923,-6.102l7.923,-6.101l7.923,-6.102l1.981,-1.526l-0.043,-10l-0.044,-9.999l-0.043,-10l-0.043,-10l-0.043,-10l-0.043,-10l-0.043,-10l-0.044,-10l-0.043,-10l-0.043,-10l-0.043,-10l-0.043,-9.999l-0.046,-10.545"/>
     <path id="svg_6" stroke-width="3" stroke-linejoin="bevel" stroke="rgb(0, 0, 0)" fill="none" d="m162.146,366.074l9.968,0.802l9.968,0.802l9.967,0.802l9.968,0.802l9.968,0.802l2.051,0.165l0.003,0.23l0.098,10l0.098,9.999l0.099,10l0.098,9.999l0.098,10l0.098,9.999l0.099,10l0.098,9.999l0.098,10l0.099,10l0.081,8.253l0.098,9.999l0.098,10l0.098,9.999l0.099,10l0.078,7.921"/>
     <path id="svg_7" stroke-width="3" stroke-linejoin="bevel" stroke="rgb(0, 0, 0)" fill="none" d="m164.303,512.732l-7.652,5.123l-9.891,-1.476l-9.89,-1.475l-9.891,-1.476l-9.89,-1.476l-9.026,-1.347l-0.201,-9.998l-0.2,-9.997l-0.201,-9.998l-0.201,-9.998l-0.2,-9.998l-0.201,-9.998l-0.201,-9.998l-0.201,-9.998l-0.2,-9.998l-0.201,-9.998l-0.201,-9.998l-0.201,-9.998l-0.2,-9.998l-0.201,-9.998l-0.179,-8.933l-0.005,-0.219l9.968,0.802l9.968,0.802l9.968,0.802l9.967,0.802l9.356,0.752l0.003,0.225l0.155,9.998l0.154,9.999l0.155,9.999l0.154,9.999l0.155,9.999l0.154,9.999l0.155,9.998l0.154,9.999l0.155,9.999l0.154,9.999l0.155,9.999l0.154,9.998l0.155,9.999l0.154,9.999l0.154,9.999l0.035,2.206"/>
     <path id="svg_8" stroke-width="3" stroke-linejoin="bevel" stroke="rgb(0, 0, 0)" fill="none" d="m145.504,203.239l-9.966,0.824l-9.966,0.824l-4.148,0.343l-9.966,0.823l-7.941,0.657l-9.966,0.824l-7.156,0.592l0.215,9.997l0.215,9.998l0.215,9.998l0.042,1.948l0.215,9.997l0.119,5.499l0.215,9.998l0.215,9.997l0.215,9.998l0.215,9.998l0.216,9.998l0.215,9.997l0.215,9.998l0.215,9.998l0.215,9.997l0.216,9.998l0.105,4.92l9.968,0.803l5.433,0.438l9.967,0.803l9.968,0.803l9.968,0.803l9.967,0.803l9.355,0.754l7.85,0.632l9.968,0.803l1.942,0.157l9.967,0.803l9.968,0.803l9.968,0.803l10.077,0.811l4.66,0.376l7.097,0.571l3.497,0.282l9.086,-4.177l9.085,-4.177l9.086,-4.177l9.086,-4.177l6.815,-3.133l9.086,-4.178l4.617,-2.122l-0.031,-10l-0.03,-10l-0.03,-10l-0.031,-10l-0.03,-10l-0.03,-10l-0.03,-10l-0.026,-8.616"/>
     <path id="svg_9" stroke-width="3" stroke-linejoin="bevel" stroke="rgb(0, 0, 0)" fill="none" d="m227.932,209.489l0.083,10l0.071,8.418l0.033,3.887l0.084,10l0.074,8.88l0.084,9.999l0.084,10l0.084,10l0.084,9.999l0.084,10l0.084,10l0.084,9.999l0.084,10l0.091,10.844l0.083,10l0.084,10l0.086,10.193"/>
     <path id="svg_10" stroke-width="3" stroke-linejoin="bevel" stroke="rgb(0, 0, 0)" fill="none" d="m273.034,204.497l-9.939,1.1l-9.939,1.1l-9.94,1.1l-9.939,1.1l-1.16,0.129l-4.185,0.463l-10,-0.096l-10,-0.097l-9.999,-0.096l-10,-0.096l-9.999,-0.097l-10,-0.096l-9.999,-0.096l-10,-0.097l-2.343,-0.022l-10,-0.096l-9.168,-0.089l-10,-0.096l-10,-0.096l-9.999,-0.097l-10.03,-0.096"/>
     <path id="svg_11" stroke-width="3" stroke-linejoin="bevel" stroke="rgb(0, 0, 0)" fill="none" d="m195.213,127.028l0.113,9.999l0.02,1.741l-3.244,0.07l-9.998,0.216l-7.296,0.158l-0.006,-0.501l-0.133,-9.999l-0.015,-1.132l9.997,-0.269l9.996,-0.268l0.566,-0.015"/>
     <path id="svg_12" stroke-width="3" stroke-linejoin="bevel" stroke="rgb(0, 0, 0)" fill="none" d="m129.716,128.785l0.173,9.999l0.016,0.907l0.009,0.491l-8.423,0.182l-9.997,0.216l-0.948,0.021l-0.191,-9.998l-0.025,-1.298l9.996,-0.268l9.39,-0.252"/>
     <path id="svg_13" stroke-width="3" stroke-linejoin="bevel" stroke="rgb(0, 0, 0)" fill="none" d="m183.642,138.518l0.013,1.011l0.124,9.999l0.008,0.644l-9.998,0.166l-9.999,0.167l-9.999,0.166l-9.998,0.167l-9.999,0.166l-9.998,0.166l-2.108,0.036l-0.181,-9.999l-0.006,-0.282l-0.01,-0.561l-0.009,-0.489l2.414,-0.052l6.009,-0.132l9.998,-0.218l3.031,-0.066l9.998,-0.219l3.727,-0.081l9.997,-0.218l8.146,-0.178l8.84,-0.193"/>
     <path id="svg_14" stroke-width="3" stroke-linejoin="bevel" stroke="rgb(0, 0, 0)" fill="none" d="m206.059,40.169l0.103,9.999l0.102,9.999l0.103,10l0.103,9.999l0.053,5.222l-9.99,0.45l-9.989,0.451l-9.99,0.45l-9.725,0.439l-0.139,-9.999l-0.139,-9.999l-0.139,-9.999l-0.139,-9.999l-0.062,-4.42l9.979,-0.65l9.979,-0.649l9.979,-0.65l9.911,-0.644"/>
     <path id="svg_15" stroke-width="3" stroke-linejoin="bevel" stroke="rgb(0, 0, 0)" fill="none" d="m136.278,44.709l0.167,9.999l0.166,9.999l0.166,9.998l0.167,9.999l0.063,3.818l-9.99,0.451l-9.989,0.45l-9.99,0.451l-7.345,0.331l-0.201,-9.998l-0.2,-9.998l-0.201,-9.998l-0.201,-9.998l-0.061,-3.067l9.979,-0.649l9.978,-0.649l9.979,-0.65l7.513,-0.489"/>
     <path id="svg_16" stroke-width="3" stroke-linejoin="bevel" stroke="rgb(0, 0, 0)" fill="none" d="m285.65,179.246l-0.03,-10l-0.03,-10l-0.031,-10l-0.03,-10l-0.03,-10l-0.03,-10l-0.031,-10l-0.03,-10l-0.03,-10l-0.031,-10l-0.03,-10l-0.03,-10l-0.03,-10l-0.031,-10l-0.021,-6.995l-9.56,-2.934l-9.56,-2.934l-9.559,-2.934l-9.56,-2.934l-9.56,-2.934l-9.56,-2.934l-1.554,-0.477l-9.971,0.757l-9.971,0.757l-9.972,0.756l-9.971,0.757l-9.971,0.756l-9.972,0.757l-9.971,0.757l-9.971,0.756l-9.972,0.757l-9.971,0.757l-9.971,0.756l-9.972,0.757l-9.971,0.756l-9.971,0.757l-4.239,0.322l0.215,9.997l0.215,9.998l0.215,9.998l0.215,9.997l0.216,9.998l0.215,9.998l0.215,9.997l0.215,9.998l0.215,9.998l0.216,9.998l0.215,9.997l0.215,9.998l0.215,9.998l0.215,9.997l0.216,9.998l0.146,6.815l0.016,0.735l1.101,-0.002l10,-0.023l10,-0.023l10,-0.022l10,-0.023l10,-0.023l8.225,-0.019l10,-0.022l10,-0.023l9.453,-0.021l10,-0.023l10,-0.023l10,-0.023l0.366,0l10,-0.023l10,-0.023l2.713,-0.006l4.199,-0.22l9.986,-0.522l9.986,-0.523l9.987,-0.523l9.986,-0.522l9.986,-0.523l3.817,-0.199"/>
     <path id="svg_17" stroke-width="3" stroke-linejoin="bevel" stroke="rgb(0, 0, 0)" fill="none" d="m226.292,14.17l0.084,10l0.084,10l0.084,9.999l0.084,10l0.084,10l0.084,9.999l0.084,10l0.084,10l0.084,9.999l0.084,10l0.084,9.999l0.083,10l0.084,10l0.084,9.999l0.077,9.134l0.084,10l0.075,8.979"/>
     <path id="svg_18" stroke-width="3" stroke-linejoin="bevel" stroke="rgb(0, 0, 0)" fill="none" d="m103.517,206.71l-8.34,-5.518l-8.34,-5.518l-8.34,-5.518l-8.339,-5.518l-8.34,-5.518l-8.34,-5.518l-8.34,-5.518l-8.339,-5.518l-6.894,-4.562"/>
     <path id="svg_19" stroke-width="3" stroke-linejoin="bevel" stroke="rgb(0, 0, 0)" fill="none" d="m145.171,182.465l0.161,9.999l0.16,9.999l0.012,0.776l0.088,5.457"/>
     <path id="svg_20" stroke-width="3" stroke-linejoin="bevel" stroke="rgb(0, 0, 0)" fill="none" d="m121.424,205.23l-8.36,-5.488l-8.36,-5.487l-8.36,-5.488l-8.359,-5.487l-1.039,-0.682"/>
     <path id="svg_21" stroke-width="3" stroke-linejoin="bevel" stroke="rgb(0, 0, 0)" fill="none" d="m204.99,182.33l0.105,9.999l0.104,9.999l0.003,0.228"/>
     <path id="svg_22" stroke-width="3" stroke-linejoin="bevel" stroke="rgb(0, 0, 0)" fill="none" d="m232.067,202.735l-0.08,-10l-0.08,-9.999l-0.005,-0.678"/>
     <path id="svg_23" stroke-width="3" stroke-linejoin="bevel" stroke="rgb(0, 0, 0)" fill="none" d="m275.457,203.024l-9.999,-0.066l-10,-0.067l-10,-0.067l-10,-0.066l-3.391,-0.023"/>
    </g>
   </g>
  </g>
 </g>
</svg>